<mxfile host="app.diagrams.net" modified="2022-11-11T01:17:54.273Z" agent="5.0 (Windows NT 10.0; Win64; x64) AppleWebKit/537.36 (KHTML, like Gecko) Chrome/107.0.0.0 Safari/537.36" etag="jY9ebBw34Wbwb-4jGQ8u" version="20.5.1" type="github">
  <diagram name="Page-1" id="74e2e168-ea6b-b213-b513-2b3c1d86103e">
    <mxGraphModel dx="2302" dy="1122" grid="1" gridSize="10" guides="1" tooltips="1" connect="1" arrows="1" fold="1" page="1" pageScale="1" pageWidth="1100" pageHeight="850" background="none" math="0" shadow="0">
      <root>
        <mxCell id="0" />
        <mxCell id="1" parent="0" />
        <mxCell id="nY0E5fid4ad6tVys_LQS-1" value="业务" style="rounded=0;whiteSpace=wrap;html=1;" vertex="1" parent="1">
          <mxGeometry x="140" y="150" width="120" height="60" as="geometry" />
        </mxCell>
        <mxCell id="nY0E5fid4ad6tVys_LQS-3" value="" style="endArrow=classic;html=1;rounded=0;exitX=1;exitY=0.5;exitDx=0;exitDy=0;startArrow=none;" edge="1" parent="1" source="nY0E5fid4ad6tVys_LQS-4">
          <mxGeometry width="50" height="50" relative="1" as="geometry">
            <mxPoint x="470" y="310" as="sourcePoint" />
            <mxPoint x="450" y="180" as="targetPoint" />
          </mxGeometry>
        </mxCell>
        <mxCell id="nY0E5fid4ad6tVys_LQS-6" value="" style="edgeStyle=orthogonalEdgeStyle;rounded=0;orthogonalLoop=1;jettySize=auto;html=1;" edge="1" parent="1" source="nY0E5fid4ad6tVys_LQS-4" target="nY0E5fid4ad6tVys_LQS-5">
          <mxGeometry relative="1" as="geometry" />
        </mxCell>
        <mxCell id="nY0E5fid4ad6tVys_LQS-5" value="mysql" style="rounded=0;whiteSpace=wrap;html=1;" vertex="1" parent="1">
          <mxGeometry x="650" y="150" width="120" height="60" as="geometry" />
        </mxCell>
        <mxCell id="nY0E5fid4ad6tVys_LQS-4" value="maindata" style="rounded=0;whiteSpace=wrap;html=1;" vertex="1" parent="1">
          <mxGeometry x="390" y="150" width="120" height="60" as="geometry" />
        </mxCell>
        <mxCell id="nY0E5fid4ad6tVys_LQS-7" value="" style="endArrow=none;html=1;rounded=0;exitX=1;exitY=0.5;exitDx=0;exitDy=0;" edge="1" parent="1" source="nY0E5fid4ad6tVys_LQS-1" target="nY0E5fid4ad6tVys_LQS-4">
          <mxGeometry width="50" height="50" relative="1" as="geometry">
            <mxPoint x="260" y="180" as="sourcePoint" />
            <mxPoint x="450" y="180" as="targetPoint" />
          </mxGeometry>
        </mxCell>
        <mxCell id="nY0E5fid4ad6tVys_LQS-10" value="" style="edgeStyle=orthogonalEdgeStyle;rounded=0;orthogonalLoop=1;jettySize=auto;html=1;" edge="1" parent="1" source="nY0E5fid4ad6tVys_LQS-8" target="nY0E5fid4ad6tVys_LQS-9">
          <mxGeometry relative="1" as="geometry" />
        </mxCell>
        <mxCell id="nY0E5fid4ad6tVys_LQS-8" value="业务" style="rounded=0;whiteSpace=wrap;html=1;" vertex="1" parent="1">
          <mxGeometry x="130" y="570" width="120" height="60" as="geometry" />
        </mxCell>
        <mxCell id="nY0E5fid4ad6tVys_LQS-12" value="" style="edgeStyle=orthogonalEdgeStyle;rounded=0;orthogonalLoop=1;jettySize=auto;html=1;" edge="1" parent="1" source="nY0E5fid4ad6tVys_LQS-9" target="nY0E5fid4ad6tVys_LQS-11">
          <mxGeometry relative="1" as="geometry" />
        </mxCell>
        <mxCell id="nY0E5fid4ad6tVys_LQS-14" value="" style="edgeStyle=orthogonalEdgeStyle;rounded=0;orthogonalLoop=1;jettySize=auto;html=1;" edge="1" parent="1" source="nY0E5fid4ad6tVys_LQS-9" target="nY0E5fid4ad6tVys_LQS-13">
          <mxGeometry relative="1" as="geometry" />
        </mxCell>
        <mxCell id="nY0E5fid4ad6tVys_LQS-9" value="redis" style="rounded=0;whiteSpace=wrap;html=1;" vertex="1" parent="1">
          <mxGeometry x="330" y="570" width="120" height="60" as="geometry" />
        </mxCell>
        <mxCell id="nY0E5fid4ad6tVys_LQS-16" value="" style="edgeStyle=orthogonalEdgeStyle;rounded=0;orthogonalLoop=1;jettySize=auto;html=1;" edge="1" parent="1" source="nY0E5fid4ad6tVys_LQS-11" target="nY0E5fid4ad6tVys_LQS-15">
          <mxGeometry relative="1" as="geometry" />
        </mxCell>
        <mxCell id="nY0E5fid4ad6tVys_LQS-11" value="否" style="rhombus;whiteSpace=wrap;html=1;rounded=0;" vertex="1" parent="1">
          <mxGeometry x="540" y="565" width="80" height="70" as="geometry" />
        </mxCell>
        <mxCell id="nY0E5fid4ad6tVys_LQS-19" value="" style="edgeStyle=orthogonalEdgeStyle;rounded=0;orthogonalLoop=1;jettySize=auto;html=1;entryX=0.5;entryY=1;entryDx=0;entryDy=0;" edge="1" parent="1" source="nY0E5fid4ad6tVys_LQS-13" target="nY0E5fid4ad6tVys_LQS-8">
          <mxGeometry relative="1" as="geometry">
            <mxPoint x="290" y="740" as="targetPoint" />
          </mxGeometry>
        </mxCell>
        <mxCell id="nY0E5fid4ad6tVys_LQS-13" value="是" style="rhombus;whiteSpace=wrap;html=1;rounded=0;" vertex="1" parent="1">
          <mxGeometry x="350" y="700" width="80" height="80" as="geometry" />
        </mxCell>
        <mxCell id="nY0E5fid4ad6tVys_LQS-21" value="" style="edgeStyle=orthogonalEdgeStyle;rounded=0;orthogonalLoop=1;jettySize=auto;html=1;entryX=0.5;entryY=0;entryDx=0;entryDy=0;exitX=0.5;exitY=0;exitDx=0;exitDy=0;" edge="1" parent="1" source="nY0E5fid4ad6tVys_LQS-15" target="nY0E5fid4ad6tVys_LQS-9">
          <mxGeometry relative="1" as="geometry">
            <mxPoint x="760" y="500" as="targetPoint" />
          </mxGeometry>
        </mxCell>
        <mxCell id="nY0E5fid4ad6tVys_LQS-15" value="maindata" style="whiteSpace=wrap;html=1;rounded=0;" vertex="1" parent="1">
          <mxGeometry x="700" y="570" width="120" height="60" as="geometry" />
        </mxCell>
        <mxCell id="nY0E5fid4ad6tVys_LQS-17" value="feign" style="text;html=1;align=center;verticalAlign=middle;resizable=0;points=[];autosize=1;strokeColor=none;fillColor=none;" vertex="1" parent="1">
          <mxGeometry x="635" y="565" width="50" height="30" as="geometry" />
        </mxCell>
        <mxCell id="nY0E5fid4ad6tVys_LQS-22" value="业务" style="rounded=0;whiteSpace=wrap;html=1;" vertex="1" parent="1">
          <mxGeometry x="130" y="290" width="120" height="60" as="geometry" />
        </mxCell>
        <mxCell id="nY0E5fid4ad6tVys_LQS-23" value="" style="endArrow=classic;html=1;rounded=0;exitX=1;exitY=0.5;exitDx=0;exitDy=0;startArrow=none;" edge="1" parent="1" source="nY0E5fid4ad6tVys_LQS-26">
          <mxGeometry width="50" height="50" relative="1" as="geometry">
            <mxPoint x="460" y="450" as="sourcePoint" />
            <mxPoint x="440" y="320" as="targetPoint" />
          </mxGeometry>
        </mxCell>
        <mxCell id="nY0E5fid4ad6tVys_LQS-24" value="" style="edgeStyle=orthogonalEdgeStyle;rounded=0;orthogonalLoop=1;jettySize=auto;html=1;" edge="1" parent="1" source="nY0E5fid4ad6tVys_LQS-26" target="nY0E5fid4ad6tVys_LQS-25">
          <mxGeometry relative="1" as="geometry" />
        </mxCell>
        <mxCell id="nY0E5fid4ad6tVys_LQS-31" value="" style="edgeStyle=orthogonalEdgeStyle;rounded=0;orthogonalLoop=1;jettySize=auto;html=1;" edge="1" parent="1" source="nY0E5fid4ad6tVys_LQS-25" target="nY0E5fid4ad6tVys_LQS-30">
          <mxGeometry relative="1" as="geometry" />
        </mxCell>
        <mxCell id="nY0E5fid4ad6tVys_LQS-37" value="" style="edgeStyle=orthogonalEdgeStyle;rounded=0;orthogonalLoop=1;jettySize=auto;html=1;" edge="1" parent="1" source="nY0E5fid4ad6tVys_LQS-25" target="nY0E5fid4ad6tVys_LQS-36">
          <mxGeometry relative="1" as="geometry" />
        </mxCell>
        <mxCell id="nY0E5fid4ad6tVys_LQS-25" value="redis" style="rounded=0;whiteSpace=wrap;html=1;" vertex="1" parent="1">
          <mxGeometry x="640" y="290" width="120" height="60" as="geometry" />
        </mxCell>
        <mxCell id="nY0E5fid4ad6tVys_LQS-26" value="maindata" style="rounded=0;whiteSpace=wrap;html=1;" vertex="1" parent="1">
          <mxGeometry x="380" y="290" width="120" height="60" as="geometry" />
        </mxCell>
        <mxCell id="nY0E5fid4ad6tVys_LQS-27" value="" style="endArrow=none;html=1;rounded=0;exitX=1;exitY=0.5;exitDx=0;exitDy=0;" edge="1" parent="1" source="nY0E5fid4ad6tVys_LQS-22" target="nY0E5fid4ad6tVys_LQS-26">
          <mxGeometry width="50" height="50" relative="1" as="geometry">
            <mxPoint x="250" y="320" as="sourcePoint" />
            <mxPoint x="440" y="320" as="targetPoint" />
          </mxGeometry>
        </mxCell>
        <mxCell id="nY0E5fid4ad6tVys_LQS-33" value="" style="edgeStyle=orthogonalEdgeStyle;rounded=0;orthogonalLoop=1;jettySize=auto;html=1;entryX=0.5;entryY=1;entryDx=0;entryDy=0;" edge="1" parent="1" source="nY0E5fid4ad6tVys_LQS-30" target="nY0E5fid4ad6tVys_LQS-26">
          <mxGeometry relative="1" as="geometry">
            <mxPoint x="600" y="460" as="targetPoint" />
          </mxGeometry>
        </mxCell>
        <mxCell id="nY0E5fid4ad6tVys_LQS-30" value="是" style="rhombus;whiteSpace=wrap;html=1;rounded=0;" vertex="1" parent="1">
          <mxGeometry x="660" y="420" width="80" height="80" as="geometry" />
        </mxCell>
        <mxCell id="nY0E5fid4ad6tVys_LQS-39" value="" style="edgeStyle=orthogonalEdgeStyle;rounded=0;orthogonalLoop=1;jettySize=auto;html=1;" edge="1" parent="1" source="nY0E5fid4ad6tVys_LQS-36" target="nY0E5fid4ad6tVys_LQS-38">
          <mxGeometry relative="1" as="geometry" />
        </mxCell>
        <mxCell id="nY0E5fid4ad6tVys_LQS-36" value="否" style="rhombus;whiteSpace=wrap;html=1;rounded=0;" vertex="1" parent="1">
          <mxGeometry x="860" y="280" width="80" height="80" as="geometry" />
        </mxCell>
        <mxCell id="nY0E5fid4ad6tVys_LQS-41" value="" style="edgeStyle=orthogonalEdgeStyle;rounded=0;orthogonalLoop=1;jettySize=auto;html=1;entryX=0.5;entryY=0;entryDx=0;entryDy=0;" edge="1" parent="1" source="nY0E5fid4ad6tVys_LQS-38" target="nY0E5fid4ad6tVys_LQS-25">
          <mxGeometry relative="1" as="geometry">
            <mxPoint x="1060" y="210" as="targetPoint" />
            <Array as="points">
              <mxPoint x="1060" y="270" />
              <mxPoint x="700" y="270" />
            </Array>
          </mxGeometry>
        </mxCell>
        <mxCell id="nY0E5fid4ad6tVys_LQS-38" value="mysql" style="whiteSpace=wrap;html=1;rounded=0;" vertex="1" parent="1">
          <mxGeometry x="1000" y="290" width="120" height="60" as="geometry" />
        </mxCell>
        <mxCell id="nY0E5fid4ad6tVys_LQS-42" value="req" style="text;html=1;align=center;verticalAlign=middle;resizable=0;points=[];autosize=1;strokeColor=none;fillColor=none;" vertex="1" parent="1">
          <mxGeometry x="290" y="290" width="40" height="30" as="geometry" />
        </mxCell>
        <mxCell id="nY0E5fid4ad6tVys_LQS-43" value="sdk" style="text;html=1;align=center;verticalAlign=middle;resizable=0;points=[];autosize=1;strokeColor=none;fillColor=none;" vertex="1" parent="1">
          <mxGeometry x="270" y="570" width="40" height="30" as="geometry" />
        </mxCell>
      </root>
    </mxGraphModel>
  </diagram>
</mxfile>
